<svg xmlns="http://www.w3.org/2000/svg" version="1.1">
<line x1="100.000000" y1="100.000000" x2="200.000000" y2="100.000000" stroke = "#FF0000"/>
<line x1="200.000000" y1="100.000000" x2="200.000000" y2="200.000000" stroke = "#FF0000"/>
<line x1="200.000000" y1="200.000000" x2="100.000000" y2="200.000000" stroke = "#FF0000"/>
<line x1="100.000000" y1="200.000000" x2="100.000000" y2="100.000000" stroke = "#FF0000"/>
<line x1="300.000000" y1="100.000000" x2="400.000000" y2="200.000000" stroke = "#0000FF"/>
<line x1="400.000000" y1="200.000000" x2="300.000000" y2="200.000000" stroke = "#0000FF"/>
<line x1="300.000000" y1="200.000000" x2="300.000000" y2="100.000000" stroke = "#0000FF"/>
<ellipse cx="500.000000" cy="-2147483148.000000" rx="200" ry="2147483647" fill="white" stroke="#00FF00" stroke-width="1"/>
<line x1="1100.000000" y1="1000.000000" x2="1100.000000" y2="1000.000000" stroke = "#000000"/>
<line x1="1100.000000" y1="1000.000000" x2="1080.901699" y2="1058.778525" stroke = "#000000"/>
<line x1="1080.901699" y1="1058.778525" x2="1030.901699" y2="1095.105652" stroke = "#000000"/>
<line x1="1030.901699" y1="1095.105652" x2="969.098301" y2="1095.105652" stroke = "#000000"/>
<line x1="969.098301" y1="1095.105652" x2="919.098301" y2="1058.778525" stroke = "#000000"/>
<line x1="919.098301" y1="1058.778525" x2="900.000000" y2="1000.000000" stroke = "#000000"/>
<line x1="900.000000" y1="1000.000000" x2="919.098301" y2="941.221475" stroke = "#000000"/>
<line x1="919.098301" y1="941.221475" x2="969.098301" y2="904.894348" stroke = "#000000"/>
<line x1="969.098301" y1="904.894348" x2="1030.901699" y2="904.894348" stroke = "#000000"/>
<line x1="1030.901699" y1="904.894348" x2="1080.901699" y2="941.221475" stroke = "#000000"/>
<line x1="1080.901699" y1="941.221475" x2="1100.000000" y2="1000.000000" stroke = "#000000"/>
</svg>